<svg width="593" height="97" viewBox="0 0 593 97" fill="none" xmlns="http://www.w3.org/2000/svg">
<path d="M0.636364 22.2727L4.09091 1.90909H85L81.5455 22.2727H53.5455L41.5455 95H16.6364L28.6364 22.2727H0.636364ZM172.318 50.0909C170.621 60.2121 167.258 68.697 162.227 75.5455C157.197 82.3939 151.091 87.5606 143.909 91.0455C136.727 94.5303 129.045 96.2727 120.864 96.2727C112.136 96.2727 104.561 94.3788 98.1364 90.5909C91.7121 86.803 87.0303 81.2576 84.0909 73.9545C81.1515 66.6515 80.5606 57.7273 82.3182 47.1818C83.9545 37.0606 87.2879 28.5455 92.3182 21.6364C97.3485 14.7273 103.485 9.5 110.727 5.95454C117.97 2.40909 125.712 0.63636 133.955 0.63636C142.621 0.63636 150.152 2.54545 156.545 6.36363C162.97 10.1818 167.636 15.7727 170.545 23.1364C173.485 30.5 174.076 39.4848 172.318 50.0909ZM146.864 47.1818C147.712 41.8485 147.773 37.3636 147.045 33.7273C146.318 30.0606 144.788 27.303 142.455 25.4545C140.121 23.5758 136.985 22.6364 133.045 22.6364C128.561 22.6364 124.591 23.7273 121.136 25.9091C117.682 28.0909 114.818 31.2273 112.545 35.3182C110.273 39.4091 108.682 44.3333 107.773 50.0909C106.803 55.4848 106.712 59.9697 107.5 63.5455C108.318 67.1212 109.924 69.803 112.318 71.5909C114.742 73.3788 117.894 74.2727 121.773 74.2727C126.197 74.2727 130.106 73.2121 133.5 71.0909C136.924 68.9697 139.758 65.8939 142 61.8636C144.273 57.8333 145.894 52.9394 146.864 47.1818ZM237.284 31C237.557 28 236.83 25.6515 235.102 23.9545C233.375 22.2273 230.466 21.3636 226.375 21.3636C223.769 21.3636 221.587 21.6667 219.83 22.2727C218.102 22.8788 216.754 23.7121 215.784 24.7727C214.845 25.8333 214.254 27.0606 214.011 28.4545C213.739 29.5455 213.754 30.5455 214.057 31.4545C214.39 32.3333 215.011 33.1364 215.92 33.8636C216.86 34.5909 218.087 35.2424 219.602 35.8182C221.148 36.3939 222.981 36.9091 225.102 37.3636L232.375 39C237.345 40.0909 241.511 41.5303 244.875 43.3182C248.269 45.0758 250.936 47.1667 252.875 49.5909C254.814 52.0152 256.087 54.7273 256.693 57.7273C257.33 60.7273 257.345 64 256.739 67.5455C255.708 73.6667 253.33 78.8485 249.602 83.0909C245.875 87.3333 241.011 90.5606 235.011 92.7727C229.011 94.9848 222.072 96.0909 214.193 96.0909C206.133 96.0909 199.284 94.8939 193.648 92.5C188.042 90.0758 183.981 86.3788 181.466 81.4091C178.981 76.4091 178.375 70.0303 179.648 62.2727H203.648C203.284 65.1212 203.587 67.5152 204.557 69.4545C205.527 71.3939 207.087 72.8636 209.239 73.8636C211.39 74.8636 214.072 75.3636 217.284 75.3636C220.011 75.3636 222.345 75.0303 224.284 74.3636C226.223 73.697 227.754 72.7727 228.875 71.5909C229.996 70.4091 230.678 69.0606 230.92 67.5455C231.163 66.1515 230.92 64.9091 230.193 63.8182C229.466 62.7273 228.148 61.7424 226.239 60.8636C224.33 59.9848 221.708 59.1818 218.375 58.4545L209.466 56.4545C201.557 54.6364 195.587 51.6364 191.557 47.4545C187.527 43.2727 186.102 37.5455 187.284 30.2727C188.254 24.3333 190.693 19.1515 194.602 14.7273C198.542 10.2727 203.542 6.81818 209.602 4.36363C215.693 1.87878 222.436 0.63636 229.83 0.63636C237.345 0.63636 243.633 1.89394 248.693 4.40909C253.784 6.92424 257.436 10.4545 259.648 15C261.89 19.5455 262.496 24.8788 261.466 31H237.284ZM261.807 95L277.261 1.90909H302.534L296.352 39.5455H297.625L331.807 1.90909H361.261L323.08 43.3636L346.534 95H316.352L301.443 60.0909L291.08 71.1818L287.08 95H261.807ZM353.307 95L368.761 1.90909H394.034L382.034 74.6364H419.67L416.216 95H353.307ZM426.432 95L441.886 1.90909H508.977L505.523 22.2727H463.705L461.159 38.2727H499.523L496.068 58.6364H457.705L455.159 74.6364H496.795L493.341 95H426.432ZM506.057 95L521.511 1.90909H561.693C568.602 1.90909 574.42 3.27273 579.148 6C583.875 8.72727 587.269 12.5606 589.33 17.5C591.39 22.4394 591.875 28.2121 590.784 34.8182C589.693 41.5455 587.269 47.3485 583.511 52.2273C579.784 57.0758 575.027 60.8182 569.239 63.4545C563.481 66.0606 557.027 67.3636 549.875 67.3636H525.875L529.148 47.7273H548.057C551.087 47.7273 553.754 47.2121 556.057 46.1818C558.36 45.1212 560.223 43.6364 561.648 41.7273C563.072 39.7879 563.996 37.4848 564.42 34.8182C564.845 32.1515 564.648 29.8788 563.83 28C563.042 26.0909 561.678 24.6364 559.739 23.6364C557.83 22.6061 555.39 22.0909 552.42 22.0909H543.511L531.33 95H506.057Z" fill="black"/>
</svg>
